<?xml version="1.0" encoding="UTF-8" standalone="no"?>
<!DOCTYPE svg PUBLIC "-//W3C//DTD SVG 1.1//EN"
 "http://www.w3.org/Graphics/SVG/1.1/DTD/svg11.dtd">
<!-- Generated by graphviz version 2.43.0 (0)
 -->
<!-- Title: spox_graph Pages: 1 -->
<svg width="516pt" height="631pt"
 viewBox="0.00 0.00 516.00 631.00" xmlns="http://www.w3.org/2000/svg" xmlns:xlink="http://www.w3.org/1999/xlink">
<g id="graph0" class="graph" transform="scale(1 1) rotate(0) translate(4 627)">
<title>spox_graph</title>
<polygon fill="white" stroke="transparent" points="-4,4 -4,-627 512,-627 512,4 -4,4"/>
<!-- Constant_0/Constant (op#0)\n output0 Constant_0_output -->
<g id="node1" class="node">
<title>Constant_0/Constant (op#0)\n output0 Constant_0_output</title>
<polygon fill="#0f9d58" stroke="#0f9d58" points="288,-623 69,-623 69,-585 288,-585 288,-623"/>
<text text-anchor="middle" x="178.5" y="-607.8" font-family="Times,serif" font-size="14.00" fill="#ffffff">Constant_0/Constant (op#0)</text>
<text text-anchor="middle" x="178.5" y="-592.8" font-family="Times,serif" font-size="14.00" fill="#ffffff"> output0 Constant_0_output</text>
</g>
<!-- Constant_0_output0 -->
<g id="node2" class="node">
<title>Constant_0_output0</title>
<polygon fill="none" stroke="black" points="284.96,-523.54 284.96,-538.46 222.6,-549 134.4,-549 72.04,-538.46 72.04,-523.54 134.4,-513 222.6,-513 284.96,-523.54"/>
<text text-anchor="middle" x="178.5" y="-527.3" font-family="Times,serif" font-size="14.00">Constant_0_output</text>
</g>
<!-- Constant_0/Constant (op#0)\n output0 Constant_0_output&#45;&gt;Constant_0_output0 -->
<g id="edge1" class="edge">
<title>Constant_0/Constant (op#0)\n output0 Constant_0_output&#45;&gt;Constant_0_output0</title>
<path fill="none" stroke="black" d="M178.5,-584.72C178.5,-576.97 178.5,-567.79 178.5,-559.27"/>
<polygon fill="black" stroke="black" points="182,-559 178.5,-549 175,-559 182,-559"/>
</g>
<!-- Equal_0/Equal (op#1)\n input0 sr\n input1 Constant_0_output\n output0 Equal_0_C -->
<g id="node3" class="node">
<title>Equal_0/Equal (op#1)\n input0 sr\n input1 Constant_0_output\n output0 Equal_0_C</title>
<polygon fill="#0f9d58" stroke="#0f9d58" points="356.5,-477 150.5,-477 150.5,-409 356.5,-409 356.5,-477"/>
<text text-anchor="middle" x="253.5" y="-461.8" font-family="Times,serif" font-size="14.00" fill="#ffffff">Equal_0/Equal (op#1)</text>
<text text-anchor="middle" x="253.5" y="-446.8" font-family="Times,serif" font-size="14.00" fill="#ffffff"> input0 sr</text>
<text text-anchor="middle" x="253.5" y="-431.8" font-family="Times,serif" font-size="14.00" fill="#ffffff"> input1 Constant_0_output</text>
<text text-anchor="middle" x="253.5" y="-416.8" font-family="Times,serif" font-size="14.00" fill="#ffffff"> output0 Equal_0_C</text>
</g>
<!-- Constant_0_output0&#45;&gt;Equal_0/Equal (op#1)\n input0 sr\n input1 Constant_0_output\n output0 Equal_0_C -->
<g id="edge3" class="edge">
<title>Constant_0_output0&#45;&gt;Equal_0/Equal (op#1)\n input0 sr\n input1 Constant_0_output\n output0 Equal_0_C</title>
<path fill="none" stroke="black" d="M193.68,-512.6C200.7,-504.54 209.37,-494.6 217.91,-484.81"/>
<polygon fill="black" stroke="black" points="220.76,-486.87 224.69,-477.03 215.48,-482.27 220.76,-486.87"/>
</g>
<!-- Equal_0_C0 -->
<g id="node5" class="node">
<title>Equal_0_C0</title>
<polygon fill="none" stroke="black" points="317.54,-347.54 317.54,-362.46 280.02,-373 226.98,-373 189.46,-362.46 189.46,-347.54 226.98,-337 280.02,-337 317.54,-347.54"/>
<text text-anchor="middle" x="253.5" y="-351.3" font-family="Times,serif" font-size="14.00">Equal_0_C</text>
</g>
<!-- Equal_0/Equal (op#1)\n input0 sr\n input1 Constant_0_output\n output0 Equal_0_C&#45;&gt;Equal_0_C0 -->
<g id="edge4" class="edge">
<title>Equal_0/Equal (op#1)\n input0 sr\n input1 Constant_0_output\n output0 Equal_0_C&#45;&gt;Equal_0_C0</title>
<path fill="none" stroke="black" d="M253.5,-409C253.5,-400.56 253.5,-391.59 253.5,-383.47"/>
<polygon fill="black" stroke="black" points="257,-383.4 253.5,-373.4 250,-383.4 257,-383.4"/>
</g>
<!-- sr0 -->
<g id="node4" class="node">
<title>sr0</title>
<polygon fill="none" stroke="black" points="356.5,-523.54 356.5,-538.46 340.68,-549 318.32,-549 302.5,-538.46 302.5,-523.54 318.32,-513 340.68,-513 356.5,-523.54"/>
<text text-anchor="middle" x="329.5" y="-527.3" font-family="Times,serif" font-size="14.00">sr</text>
</g>
<!-- sr0&#45;&gt;Equal_0/Equal (op#1)\n input0 sr\n input1 Constant_0_output\n output0 Equal_0_C -->
<g id="edge2" class="edge">
<title>sr0&#45;&gt;Equal_0/Equal (op#1)\n input0 sr\n input1 Constant_0_output\n output0 Equal_0_C</title>
<path fill="none" stroke="black" d="M315.56,-514.23C308.18,-505.88 298.75,-495.2 289.47,-484.7"/>
<polygon fill="black" stroke="black" points="292.02,-482.31 282.78,-477.13 286.78,-486.94 292.02,-482.31"/>
</g>
<!-- If_0/If (op#2)\n input0 Equal_0_C\n output0 If_0_outputs_0\n output1 If_0_outputs_1 -->
<g id="node6" class="node">
<title>If_0/If (op#2)\n input0 Equal_0_C\n output0 If_0_outputs_0\n output1 If_0_outputs_1</title>
<polygon fill="#0f9d58" stroke="#0f9d58" points="346,-301 161,-301 161,-233 346,-233 346,-301"/>
<text text-anchor="middle" x="253.5" y="-285.8" font-family="Times,serif" font-size="14.00" fill="#ffffff">If_0/If (op#2)</text>
<text text-anchor="middle" x="253.5" y="-270.8" font-family="Times,serif" font-size="14.00" fill="#ffffff"> input0 Equal_0_C</text>
<text text-anchor="middle" x="253.5" y="-255.8" font-family="Times,serif" font-size="14.00" fill="#ffffff"> output0 If_0_outputs_0</text>
<text text-anchor="middle" x="253.5" y="-240.8" font-family="Times,serif" font-size="14.00" fill="#ffffff"> output1 If_0_outputs_1</text>
</g>
<!-- Equal_0_C0&#45;&gt;If_0/If (op#2)\n input0 Equal_0_C\n output0 If_0_outputs_0\n output1 If_0_outputs_1 -->
<g id="edge5" class="edge">
<title>Equal_0_C0&#45;&gt;If_0/If (op#2)\n input0 Equal_0_C\n output0 If_0_outputs_0\n output1 If_0_outputs_1</title>
<path fill="none" stroke="black" d="M253.5,-336.6C253.5,-329.18 253.5,-320.16 253.5,-311.14"/>
<polygon fill="black" stroke="black" points="257,-311.03 253.5,-301.03 250,-311.03 257,-311.03"/>
</g>
<!-- If_0_outputs_00 -->
<g id="node7" class="node">
<title>If_0_outputs_00</title>
<polygon fill="none" stroke="black" points="244.84,-171.54 244.84,-186.46 195.43,-197 125.57,-197 76.16,-186.46 76.16,-171.54 125.57,-161 195.43,-161 244.84,-171.54"/>
<text text-anchor="middle" x="160.5" y="-175.3" font-family="Times,serif" font-size="14.00">If_0_outputs_0</text>
</g>
<!-- If_0/If (op#2)\n input0 Equal_0_C\n output0 If_0_outputs_0\n output1 If_0_outputs_1&#45;&gt;If_0_outputs_00 -->
<g id="edge6" class="edge">
<title>If_0/If (op#2)\n input0 Equal_0_C\n output0 If_0_outputs_0\n output1 If_0_outputs_1&#45;&gt;If_0_outputs_00</title>
<path fill="none" stroke="black" d="M217.81,-233C207.38,-223.35 196.19,-213 186.48,-204.03"/>
<polygon fill="black" stroke="black" points="188.78,-201.38 179.06,-197.16 184.03,-206.52 188.78,-201.38"/>
</g>
<!-- If_0_outputs_10 -->
<g id="node8" class="node">
<title>If_0_outputs_10</title>
<polygon fill="none" stroke="black" points="450.84,-171.54 450.84,-186.46 401.43,-197 331.57,-197 282.16,-186.46 282.16,-171.54 331.57,-161 401.43,-161 450.84,-171.54"/>
<text text-anchor="middle" x="366.5" y="-175.3" font-family="Times,serif" font-size="14.00">If_0_outputs_1</text>
</g>
<!-- If_0/If (op#2)\n input0 Equal_0_C\n output0 If_0_outputs_0\n output1 If_0_outputs_1&#45;&gt;If_0_outputs_10 -->
<g id="edge7" class="edge">
<title>If_0/If (op#2)\n input0 Equal_0_C\n output0 If_0_outputs_0\n output1 If_0_outputs_1&#45;&gt;If_0_outputs_10</title>
<path fill="none" stroke="black" d="M296.87,-233C309.91,-223.07 323.95,-212.38 335.98,-203.23"/>
<polygon fill="black" stroke="black" points="338.11,-206.01 343.95,-197.16 333.87,-200.44 338.11,-206.01"/>
</g>
<!-- Introduce_0_id0/Identity (op#3)\n input0 If_0_outputs_0\n output0 output -->
<g id="node9" class="node">
<title>Introduce_0_id0/Identity (op#3)\n input0 If_0_outputs_0\n output0 output</title>
<polygon fill="#0f9d58" stroke="#0f9d58" points="245,-125 0,-125 0,-72 245,-72 245,-125"/>
<text text-anchor="middle" x="122.5" y="-109.8" font-family="Times,serif" font-size="14.00" fill="#ffffff">Introduce_0_id0/Identity (op#3)</text>
<text text-anchor="middle" x="122.5" y="-94.8" font-family="Times,serif" font-size="14.00" fill="#ffffff"> input0 If_0_outputs_0</text>
<text text-anchor="middle" x="122.5" y="-79.8" font-family="Times,serif" font-size="14.00" fill="#ffffff"> output0 output</text>
</g>
<!-- If_0_outputs_00&#45;&gt;Introduce_0_id0/Identity (op#3)\n input0 If_0_outputs_0\n output0 output -->
<g id="edge8" class="edge">
<title>If_0_outputs_00&#45;&gt;Introduce_0_id0/Identity (op#3)\n input0 If_0_outputs_0\n output0 output</title>
<path fill="none" stroke="black" d="M152.25,-160.97C148.46,-153.12 143.8,-143.51 139.32,-134.24"/>
<polygon fill="black" stroke="black" points="142.43,-132.63 134.92,-125.16 136.13,-135.68 142.43,-132.63"/>
</g>
<!-- Introduce_0_id1/Identity (op#4)\n input0 If_0_outputs_1\n output0 stateN -->
<g id="node11" class="node">
<title>Introduce_0_id1/Identity (op#4)\n input0 If_0_outputs_1\n output0 stateN</title>
<polygon fill="#0f9d58" stroke="#0f9d58" points="508,-125 263,-125 263,-72 508,-72 508,-125"/>
<text text-anchor="middle" x="385.5" y="-109.8" font-family="Times,serif" font-size="14.00" fill="#ffffff">Introduce_0_id1/Identity (op#4)</text>
<text text-anchor="middle" x="385.5" y="-94.8" font-family="Times,serif" font-size="14.00" fill="#ffffff"> input0 If_0_outputs_1</text>
<text text-anchor="middle" x="385.5" y="-79.8" font-family="Times,serif" font-size="14.00" fill="#ffffff"> output0 stateN</text>
</g>
<!-- If_0_outputs_10&#45;&gt;Introduce_0_id1/Identity (op#4)\n input0 If_0_outputs_1\n output0 stateN -->
<g id="edge10" class="edge">
<title>If_0_outputs_10&#45;&gt;Introduce_0_id1/Identity (op#4)\n input0 If_0_outputs_1\n output0 stateN</title>
<path fill="none" stroke="black" d="M370.62,-160.97C372.46,-153.37 374.7,-144.11 376.88,-135.11"/>
<polygon fill="black" stroke="black" points="380.34,-135.7 379.29,-125.16 373.54,-134.05 380.34,-135.7"/>
</g>
<!-- output0 -->
<g id="node10" class="node">
<title>output0</title>
<polygon fill="none" stroke="black" points="167.55,-10.54 167.55,-25.46 141.16,-36 103.84,-36 77.45,-25.46 77.45,-10.54 103.84,0 141.16,0 167.55,-10.54"/>
<text text-anchor="middle" x="122.5" y="-14.3" font-family="Times,serif" font-size="14.00">output</text>
</g>
<!-- Introduce_0_id0/Identity (op#3)\n input0 If_0_outputs_0\n output0 output&#45;&gt;output0 -->
<g id="edge9" class="edge">
<title>Introduce_0_id0/Identity (op#3)\n input0 If_0_outputs_0\n output0 output&#45;&gt;output0</title>
<path fill="none" stroke="black" d="M122.5,-71.8C122.5,-63.71 122.5,-54.76 122.5,-46.55"/>
<polygon fill="black" stroke="black" points="126,-46.33 122.5,-36.33 119,-46.33 126,-46.33"/>
</g>
<!-- stateN0 -->
<g id="node12" class="node">
<title>stateN0</title>
<polygon fill="none" stroke="black" points="431.46,-10.54 431.46,-25.46 404.54,-36 366.46,-36 339.54,-25.46 339.54,-10.54 366.46,0 404.54,0 431.46,-10.54"/>
<text text-anchor="middle" x="385.5" y="-14.3" font-family="Times,serif" font-size="14.00">stateN</text>
</g>
<!-- Introduce_0_id1/Identity (op#4)\n input0 If_0_outputs_1\n output0 stateN&#45;&gt;stateN0 -->
<g id="edge11" class="edge">
<title>Introduce_0_id1/Identity (op#4)\n input0 If_0_outputs_1\n output0 stateN&#45;&gt;stateN0</title>
<path fill="none" stroke="black" d="M385.5,-71.8C385.5,-63.71 385.5,-54.76 385.5,-46.55"/>
<polygon fill="black" stroke="black" points="389,-46.33 385.5,-36.33 382,-46.33 389,-46.33"/>
</g>
</g>
</svg>
